<svg width="234" height="80" viewBox="0 0 234 80" fill="none" xmlns="http://www.w3.org/2000/svg">
<path d="M110.556 50.9264C109.332 49.6409 108.719 47.9216 108.719 45.7701V34.4928H112.466V45.6217C112.466 48.4659 113.888 49.8877 116.732 49.8877C119.23 49.8877 121.184 48.7626 122.593 46.5119V34.4928H126.34V52.299H122.705V49.7764C121.864 50.8401 120.869 51.6191 119.719 52.1135C118.569 52.6079 117.326 52.8555 115.99 52.8555C113.591 52.8555 111.78 52.2126 110.556 50.9264Z" fill="white"/>
<path d="M141.141 49.2942C142.106 48.8248 142.823 48.1692 143.293 47.3281V44.9168C141.685 43.8781 139.892 43.3588 137.914 43.3588C136.479 43.3588 135.41 43.637 134.705 44.1935C134 44.7499 133.648 45.5973 133.648 46.7346C133.648 48.911 135.07 49.9991 137.914 49.9991C139.101 49.9991 140.177 49.7643 141.141 49.2942ZM131.812 51.2046C130.513 50.1045 129.864 48.6142 129.864 46.7346C129.864 44.7563 130.488 43.229 131.737 42.1532C132.986 41.0774 134.761 40.5394 137.061 40.5394C139.509 40.5394 141.586 41.0345 143.293 42.0233V41.0959C143.293 39.6862 142.866 38.6418 142.013 37.9613C141.16 37.2813 139.818 36.9412 137.988 36.9412C136.9 36.9412 135.842 37.0466 134.816 37.2565C133.79 37.4669 132.869 37.7572 132.053 38.1282V35.0863C132.795 34.7403 133.759 34.4621 134.946 34.2516C136.133 34.0419 137.283 33.9363 138.396 33.9363C141.339 33.9363 143.521 34.5856 144.944 35.8839C146.366 37.1823 147.077 38.9815 147.077 41.2814V52.299H143.553V50.2957C142.786 51.1368 141.877 51.7738 140.826 52.2063C139.774 52.6386 138.495 52.8555 136.987 52.8555C134.835 52.8555 133.11 52.3048 131.812 51.2046Z" fill="white"/>
<path d="M151.713 34.4926H155.349V37.0522C156.189 35.9892 157.222 35.2038 158.446 34.6966C159.67 34.1901 160.95 33.9362 162.286 33.9362C164.66 33.9362 166.428 34.5668 167.59 35.8281C168.752 37.0894 169.334 38.7836 169.334 40.9103V52.2988H165.587V41.2812C165.587 38.3877 164.202 36.941 161.432 36.941C160.245 36.941 159.138 37.2191 158.112 37.7756C157.086 38.3321 156.202 39.1795 155.46 40.3167V52.2988H151.713V34.4926Z" fill="white"/>
<path d="M176.66 51.2974C175.683 50.2587 175.195 48.7876 175.195 46.883V37.3863H172.487V34.4928H175.195V29.1509H178.979V34.4928H183.356V37.3863H178.979V46.6232C178.979 47.8104 179.207 48.6514 179.665 49.1458C180.122 49.6409 180.957 49.8877 182.169 49.8877C182.886 49.8877 183.603 49.7272 184.321 49.4055V52.3732C183.381 52.6943 182.218 52.8555 180.834 52.8555C179.028 52.8555 177.637 52.3361 176.66 51.2974Z" fill="white"/>
<path d="M188.141 34.4926H191.962V52.2988H188.141V34.4926ZM188.475 30.3749C188.054 29.9547 187.844 29.4354 187.844 28.8169C187.844 28.199 188.054 27.6796 188.475 27.2588C188.895 26.8386 189.414 26.6282 190.033 26.6282C190.676 26.6282 191.214 26.8386 191.647 27.2588C192.079 27.6796 192.296 28.199 192.296 28.8169C192.296 29.4354 192.079 29.9547 191.647 30.3749C191.214 30.7957 190.676 31.0055 190.033 31.0055C189.414 31.0055 188.895 30.7957 188.475 30.3749Z" fill="white"/>
<path d="M201.236 51.7426C199.702 51.0007 198.51 49.919 197.656 48.4967C196.803 47.0749 196.376 45.387 196.376 43.433C196.376 41.4797 196.803 39.7918 197.656 38.3694C198.51 36.9475 199.709 35.8532 201.255 35.0864C202.8 34.3201 204.575 33.9363 206.578 33.9363C209.298 33.9363 211.475 34.4684 213.107 35.5315V38.6105C211.499 37.4976 209.447 36.9412 206.949 36.9412C204.921 36.9412 203.282 37.4919 202.034 38.592C200.785 39.6927 200.16 41.3064 200.16 43.433C200.16 45.5603 200.778 47.1675 202.015 48.2555C203.252 49.3441 204.872 49.8878 206.875 49.8878C209.372 49.8878 211.524 49.2942 213.33 48.1072V51.1491C212.464 51.7426 211.481 52.1755 210.38 52.4474C209.28 52.7193 207.988 52.8555 206.504 52.8555C204.525 52.8555 202.769 52.4845 201.236 51.7426Z" fill="white"/>
<path d="M227.76 49.2942C228.725 48.8248 229.442 48.1692 229.912 47.3281V44.9168C228.304 43.8781 226.511 43.3588 224.533 43.3588C223.098 43.3588 222.029 43.637 221.324 44.1935C220.619 44.7499 220.267 45.5973 220.267 46.7346C220.267 48.911 221.689 49.9991 224.533 49.9991C225.72 49.9991 226.796 49.7643 227.76 49.2942ZM218.431 51.2046C217.132 50.1045 216.483 48.6142 216.483 46.7346C216.483 44.7563 217.107 43.229 218.357 42.1532C219.605 41.0774 221.38 40.5394 223.68 40.5394C226.128 40.5394 228.206 41.0345 229.912 42.0233V41.0959C229.912 39.6862 229.485 38.6418 228.632 37.9613C227.779 37.2813 226.437 36.9412 224.607 36.9412C223.519 36.9412 222.462 37.0466 221.436 37.2565C220.409 37.4669 219.488 37.7572 218.672 38.1282V35.0863C219.414 34.7403 220.378 34.4621 221.565 34.2516C222.752 34.0419 223.902 33.9363 225.015 33.9363C227.958 33.9363 230.14 34.5856 231.563 35.8839C232.985 37.1823 233.696 38.9815 233.696 41.2814V52.299H230.172V50.2957C229.405 51.1368 228.496 51.7738 227.445 52.2063C226.394 52.6386 225.114 52.8555 223.606 52.8555C221.454 52.8555 219.729 52.3048 218.431 51.2046Z" fill="white"/>
<path d="M87.0335 41.949C87.0335 37.6031 90.3622 34.0801 94.4684 34.0801C98.5745 34.0801 101.903 37.6031 101.903 41.949C101.903 43.1463 101.649 44.2805 101.197 45.2966L98.9884 42.6517L96.1351 45.0345L98.86 48.2974C97.6294 49.2527 96.1115 49.818 94.4684 49.818C90.3622 49.818 87.0335 46.2949 87.0335 41.949ZM106.908 49.7L103.808 47.7704C104.953 46.0967 105.621 44.0979 105.621 41.949C105.621 36.0633 100.628 31.292 94.4684 31.292C88.3091 31.292 83.316 36.0633 83.316 41.949C83.316 47.8348 88.3091 52.6061 94.4684 52.6061C96.9704 52.6061 99.28 51.8187 101.141 50.489L104.944 52.856L106.908 49.7Z" fill="white"/>
<path fill-rule="evenodd" clip-rule="evenodd" d="M12.2975 77.4821C-1.66699 69.7852 -3.73824 46.7644 7.67148 26.0636C16.5497 9.95559 30.9721 -0.00123596 43.5153 0C47.0916 0.000411987 50.5173 0.810265 53.6155 2.51788C64.8741 8.72324 68.402 24.8894 63.3672 41.7697C71.1105 51.153 72.8777 62.4226 67.1964 67.6636C62.9517 71.5794 55.6698 71.064 48.6178 67.019C37.3016 78.6588 22.8968 83.3242 12.2975 77.4821ZM54.6744 59.6701C52.7979 62.3544 50.7634 64.8121 48.6178 67.019C45.6851 65.3368 42.7921 63.0443 40.1739 60.2061C39.5133 59.49 38.8887 58.7593 38.3009 58.0178C32.3592 64.0886 25.4461 67.6014 19.2995 67.6016C16.8844 67.6017 14.5879 67.0593 12.5149 65.9168C2.60683 60.4557 1.56282 43.35 10.183 27.7102C18.8032 12.0703 33.8235 3.81876 43.7316 9.27964C50.4202 12.9663 53.0693 21.9598 51.4326 32.2266C56.6673 35.021 59.3945 36.9559 63.3666 41.7691C63.3668 41.7693 63.367 41.7695 63.3672 41.7697C63.0602 42.7989 62.7214 43.8307 62.3506 44.8631C67.034 51.1883 68.4594 57.8213 65.4237 60.6218C63.1864 62.6858 59.062 62.1613 54.6744 59.6701ZM44.4589 50.1986C42.6019 53.1284 40.5191 55.7514 38.3009 58.0178C30.9566 48.7532 29.3508 37.8044 34.9153 32.671C36.8818 30.8568 39.5086 29.9957 42.463 29.9958C45.2547 29.996 48.9654 30.9188 51.432 32.2263C51.4322 32.2264 51.4324 32.2265 51.4326 32.2266C51.2812 33.1765 51.093 34.1374 50.868 35.1059C56.6672 38.6363 58.0309 40 62.3501 44.8625C62.3503 44.8627 62.3504 44.8629 62.3506 44.8631C61.2596 47.9005 59.8915 50.9427 58.2415 53.9363C57.134 55.9458 55.9402 57.8595 54.6744 59.6701C52.1939 58.2616 49.6292 56.2246 47.2738 53.6713C46.2282 52.5379 45.2873 51.3715 44.4589 50.1986ZM44.4589 50.1986C45.0148 49.3216 45.5504 48.4171 46.0634 47.4864C48.3258 43.3815 49.9226 39.1757 50.868 35.1059C50.8678 35.1058 50.8677 35.1057 50.8675 35.1056C47.12 33.3775 43.7588 33.2196 41.8064 35.0208C38.8657 37.7336 40.1201 44.0558 44.4589 50.1986Z" fill="white"/>
</svg>
